<?xml version="1.0" encoding="UTF-8"?>
<!DOCTYPE svg PUBLIC "-//W3C//DTD SVG 1.1//EN" "http://www.w3.org/Graphics/SVG/1.1/DTD/svg11.dtd">
<svg xmlns="http://www.w3.org/2000/svg" version="1.1" width="3840px" height="2160px" style="shape-rendering:geometricPrecision; text-rendering:geometricPrecision; image-rendering:optimizeQuality; fill-rule:evenodd; clip-rule:evenodd" xmlns:xlink="http://www.w3.org/1999/xlink">
<g><path style="opacity:1" fill="#d1d6d9" d="M 3214.5,36.5 C 3215.89,38.9237 3217.73,40.2571 3220,40.5C 3227.43,51.7936 3230.1,64.1269 3228,77.5C 3220.15,112.526 3205.32,144.192 3183.5,172.5C 3191.98,184.032 3193.81,196.699 3189,210.5C 3186.8,217.227 3183.8,223.561 3180,229.5C 3164,254.171 3144.5,275.671 3121.5,294C 3112.58,299.709 3103.75,305.542 3095,311.5C 3097.06,323.553 3095.06,334.886 3089,345.5C 3058.76,388.242 3018.93,418.242 2969.5,435.5C 2968.71,459.736 2959.71,480.236 2942.5,497C 2936.14,501.183 2930.14,505.85 2924.5,511C 2921.89,512.481 2919.22,513.648 2916.5,514.5C 2916.34,516.199 2916.51,517.866 2917,519.5C 2921.54,533.571 2926.88,547.238 2933,560.5C 2933.72,559.941 2934.56,559.608 2935.5,559.5C 2949.12,561.402 2962.78,562.902 2976.5,564C 2978.68,564.163 2980.51,564.996 2982,566.5C 2995.48,591.413 3009.32,617.08 3023.5,643.5C 3022.15,644.675 3022.31,645.675 3024,646.5C 3024.33,646.167 3024.67,645.833 3025,645.5C 3027.87,652.073 3031.37,658.239 3035.5,664C 3093.29,672.688 3151.29,681.688 3209.5,691C 3224.11,692.822 3236.61,699.322 3247,710.5C 3251.93,718.392 3254.09,726.892 3253.5,736C 3249.59,750.803 3241.26,762.47 3228.5,771C 3188.17,796 3147.83,821 3107.5,846C 3105.26,848.488 3103.26,851.154 3101.5,854C 3168.94,913.226 3236.61,972.226 3304.5,1031C 3317.43,1043.15 3323.27,1057.98 3322,1075.5C 3317.66,1092.5 3306.83,1102.67 3289.5,1106C 3279.79,1106.79 3270.13,1106.45 3260.5,1105C 3199.21,1094.12 3137.87,1083.45 3076.5,1073C 3073.77,1072.18 3071.11,1072.35 3068.5,1073.5C 3097.17,1098.02 3124,1125.69 3149,1156.5C 3187.85,1205.88 3213.52,1261.55 3226,1323.5C 3236.04,1386.85 3229.04,1448.18 3205,1507.5C 3188.96,1546.62 3167.12,1581.95 3139.5,1613.5C 3139.17,1612.17 3138.83,1612.17 3138.5,1613.5C 3137.17,1613.83 3137.17,1614.17 3138.5,1614.5C 3107.74,1651.42 3073.07,1684.59 3034.5,1714C 2977.93,1755.56 2918.6,1791.23 2856.5,1821C 2729.85,1879.33 2598.18,1922.66 2461.5,1951C 2332.46,1978.04 2202.13,1995.37 2070.5,2003C 2024.32,2048.7 1975.66,2091.2 1924.5,2130.5C 1885.54,2100.05 1847.87,2067.88 1811.5,2034C 1801.55,2024.38 1791.89,2014.38 1782.5,2004C 1612.96,1995.75 1445.96,1971.09 1281.5,1930C 1160.57,1899.52 1044.57,1856.19 933.5,1800C 872.233,1768.21 815.233,1730.21 762.5,1686C 721.498,1651.02 686.332,1611.18 657,1566.5C 585.861,1449.79 582.528,1331.12 647,1210.5C 674.947,1163.36 709.447,1121.36 750.5,1084.5C 748.579,1083.36 746.579,1083.19 744.5,1084C 684.102,1094.43 623.768,1105.26 563.5,1116.5C 546.536,1116.6 533.036,1109.93 523,1096.5C 518.851,1088.28 517.518,1079.62 519,1070.5C 523.25,1056.91 530.75,1045.41 541.5,1036C 611.438,975.068 681.105,913.734 750.5,852C 708.203,824.845 665.536,798.179 622.5,772C 610.125,765.088 601.625,754.921 597,741.5C 593.322,723.507 599.155,709.674 614.5,700C 621.273,695.806 628.607,693.14 636.5,692C 704.355,681.233 772.022,670.9 839.5,661C 863.054,618.721 886.721,576.554 910.5,534.5C 923.336,531.811 936.336,529.645 949.5,528C 950.667,527.5 951.5,526.667 952,525.5C 952.889,522.313 953.722,519.147 954.5,516C 939.136,506.632 925.636,495.132 914,481.5C 905.826,467.303 901.492,451.97 901,435.5C 849.404,418.367 808.738,387.034 779,341.5C 776.562,335.746 775.062,329.746 774.5,323.5C 775.382,317.986 776.549,312.652 778,307.5C 739.439,288.943 709.106,261.276 687,224.5C 680.294,212.3 677.96,199.3 680,185.5C 681.473,181.221 683.473,177.221 686,173.5C 686.667,172.167 686.667,170.833 686,169.5C 663.843,142.516 649.176,111.849 642,77.5C 640.229,38.5936 658.396,22.427 696.5,29C 713.942,36.9367 732.275,43.6034 751.5,49C 816.024,68.4391 882.191,83.9391 950,95.5C 950.333,95.1667 950.667,94.8333 951,94.5C 987.003,98.1658 1023,100.166 1059,100.5C 1127.99,102.263 1196.99,103.597 1266,104.5C 1307.3,104.375 1348.3,104.375 1389,104.5C 1483.79,102.922 1577.62,101.755 1670.5,101C 1675.17,100.667 1679.83,100.333 1684.5,100C 1694.66,87.8436 1705.49,76.3436 1717,65.5C 1730.43,66.1624 1743.93,66.4957 1757.5,66.5C 1853.84,65.7096 1950.18,64.7096 2046.5,63.5C 2049.25,63.3533 2051.75,64.0199 2054,65.5C 2053.38,67.0948 2053.72,68.4281 2055,69.5C 2055.33,69.1667 2055.67,68.8333 2056,68.5C 2057.79,71.2887 2059.95,73.7887 2062.5,76C 2061.17,77.8402 2061.33,78.3402 2063,77.5C 2063.83,78.3333 2064.67,79.1667 2065.5,80C 2064.55,80.7175 2064.38,81.5509 2065,82.5C 2065.89,81.2888 2066.73,81.2888 2067.5,82.5C 2066.17,83.5 2066.17,84.5 2067.5,85.5C 2068.27,86.7112 2069.11,86.7112 2070,85.5C 2076.17,93 2082.33,100.5 2088.5,108C 2185.23,110.342 2282.73,112.176 2381,113.5C 2456.18,113.368 2530.18,113.368 2603,113.5C 2659.32,111.534 2715.82,109.7 2772.5,108C 2826.23,105.383 2879.73,100.883 2933,94.5C 2996.83,82.1342 3059.99,66.9675 3122.5,49C 3141.91,42.4528 3160.91,35.1195 3179.5,27C 3191.26,24.9288 3202.26,26.9288 3212.5,33C 3213.64,33.7412 3213.64,34.5745 3212.5,35.5C 3212.96,36.2975 3213.62,36.6309 3214.5,36.5 Z"/></g>
<g><path style="opacity:1" fill="#d2d7d9" d="M 3214.5,35.5 C 3215.83,36.1667 3215.83,36.1667 3214.5,35.5 Z"/></g>
<g><path style="opacity:1" fill="#015483" d="M 3027.5,1123.5 C 3036.17,1132.83 3045.17,1141.83 3054.5,1150.5C 3055.6,1151.85 3056.6,1153.35 3057.5,1155C 3058.45,1155.48 3059.45,1155.65 3060.5,1155.5C 3060.35,1156.55 3060.52,1157.55 3061,1158.5C 3095.55,1195.22 3123.21,1236.88 3144,1283.5C 3165.02,1334.33 3169.35,1386.67 3157,1440.5C 3148.35,1474.79 3134.85,1506.96 3116.5,1537C 3099.58,1562.59 3080.42,1586.42 3059,1608.5C 3058.67,1609.5 3058.33,1610.5 3058,1611.5C 3050.17,1619 3042.33,1626.5 3034.5,1634C 3033.5,1634.33 3032.5,1634.67 3031.5,1635C 3022.45,1643.39 3013.45,1651.72 3004.5,1660C 2930.11,1716.62 2849.61,1762.78 2763,1798.5C 2721.87,1815.8 2680.03,1831.63 2637.5,1846C 2466.15,1899.47 2290.81,1932.14 2111.5,1944C 2086.44,1945.07 2061.44,1946.73 2036.5,1949C 2032.35,1952.65 2028.85,1956.82 2026,1961.5C 2013.82,1972.18 2002.65,1983.51 1992.5,1995.5C 1991.45,1995.35 1990.45,1995.52 1989.5,1996C 1981.35,2004.56 1973.02,2012.9 1964.5,2021C 1955.23,2027.93 1946.23,2035.26 1937.5,2043C 1933.78,2047.02 1929.61,2050.52 1925,2053.5C 1921.19,2050.12 1917.03,2047.29 1912.5,2045C 1910.09,2040.92 1906.76,2037.92 1902.5,2036C 1900.13,2033.96 1898.13,2031.63 1896.5,2029C 1892.58,2027.42 1889.58,2024.75 1887.5,2021C 1886.17,2020.33 1884.83,2019.67 1883.5,2019C 1863,1999.17 1842.83,1979 1823,1958.5C 1822.67,1957.5 1822.33,1956.5 1822,1955.5C 1819.17,1953.33 1816.33,1951.17 1813.5,1949C 1635.89,1942.86 1460.89,1917.86 1288.5,1874C 1203.25,1851.36 1120.25,1822.36 1039.5,1787C 979.925,1759.9 923.258,1728.23 869.5,1692C 863.55,1687.72 857.883,1683.05 852.5,1678C 848.099,1674.6 843.433,1671.6 838.5,1669C 836.448,1665.47 833.448,1663.14 829.5,1662C 828.743,1660.49 827.743,1659.15 826.5,1658C 823.833,1656.33 821.167,1654.67 818.5,1653C 812.582,1647.24 806.582,1641.74 800.5,1636.5C 797.5,1632.83 794.167,1629.5 790.5,1626.5C 783.86,1620.53 777.527,1614.19 771.5,1607.5C 768.167,1603.5 764.5,1599.83 760.5,1596.5C 756.386,1593.88 753.553,1590.21 752,1585.5C 723.839,1553.75 701.672,1517.92 685.5,1478C 681.466,1464.9 677.633,1451.73 674,1438.5C 665.402,1400.1 665.402,1361.77 674,1323.5C 676.932,1313.2 679.932,1302.87 683,1292.5C 703.992,1238.49 734.992,1191.16 776,1150.5C 777,1148.83 778,1147.17 779,1145.5C 834.066,1090.42 895.899,1044.59 964.5,1008C 965.337,1006.99 965.67,1005.82 965.5,1004.5C 833.08,1023.69 701.247,1046.02 570,1071.5C 569.837,1069.61 570.671,1068.11 572.5,1067C 603.489,1040.34 634.155,1013.34 664.5,986C 715.916,941.628 766.916,896.794 817.5,851.5C 819.071,849.585 821.071,848.585 823.5,848.5C 823.677,846.019 822.677,844.186 820.5,843C 762.719,807.393 705.052,771.56 647.5,735.5C 662.723,732.351 678.056,729.517 693.5,727C 747.186,719.092 800.853,711.092 854.5,703C 880.738,657.353 906.572,611.519 932,565.5C 932.833,564.667 933.667,563.833 934.5,563C 948.179,560.78 962.179,559.113 976.5,558C 977.416,557.626 978.25,557.126 979,556.5C 985.682,538.458 992.016,520.125 998,501.5C 998.667,495.5 998.667,489.5 998,483.5C 997.731,480.648 996.897,477.982 995.5,475.5C 992.976,473.81 990.976,471.643 989.5,469C 985.052,467.36 980.552,465.86 976,464.5C 967.938,465.751 960.105,467.585 952.5,470C 940.54,458.038 935.707,443.538 938,426.5C 939.175,419.712 940.509,413.046 942,406.5C 886.96,398.516 843.96,371.849 813,326.5C 811.632,325.007 811.465,323.507 812.5,322C 819.739,320.024 827.072,318.358 834.5,317C 842.56,313.888 849.727,309.388 856,303.5C 856.483,302.552 856.649,301.552 856.5,300.5C 820.166,294.821 788.166,280.321 760.5,257C 743.448,240.779 728.782,222.613 716.5,202.5C 736.464,202.515 756.464,202.349 776.5,202C 777.022,201.439 777.355,200.772 777.5,200C 766.631,193.493 755.964,186.493 745.5,179C 741.756,174.585 737.422,170.918 732.5,168C 727.551,161.564 722.051,155.73 716,150.5C 704.715,135.533 695.048,119.533 687,102.5C 681.799,90.028 678.632,77.028 677.5,63.5C 680.91,63.4571 684.243,63.9571 687.5,65C 714.3,76.0756 741.634,85.409 769.5,93C 818.487,106.065 867.82,117.731 917.5,128C 942.437,130.951 967.437,133.285 992.5,135C 1102.57,138.973 1212.91,140.807 1323.5,140.5C 1448.51,140.133 1573.51,138.966 1698.5,137C 1702.29,133.42 1706.29,130.087 1710.5,127C 1712.59,122.576 1715.75,119.076 1720,116.5C 1722.8,110.7 1726.97,106.2 1732.5,103C 1833.19,101.877 1933.85,101.21 2034.5,101C 2035.67,102.167 2036.83,103.333 2038,104.5C 2048.51,117.484 2059.01,130.318 2069.5,143C 2071.5,143.333 2073.5,143.667 2075.5,144C 2302.28,150.61 2529.28,150.944 2756.5,145C 2808.32,143.265 2859.98,139.598 2911.5,134C 2988.11,121.719 3063.78,104.386 3138.5,82C 3155.67,76.3904 3172.51,70.2238 3189,63.5C 3191.22,63.5446 3192.72,64.5446 3193.5,66.5C 3180.23,125.555 3147.23,169.388 3094.5,198C 3093.62,199.356 3093.29,200.856 3093.5,202.5C 3113.52,202.5 3133.52,202.333 3153.5,202C 3142.01,223.324 3127.01,241.824 3108.5,257.5C 3080.83,280.992 3048.83,295.325 3012.5,300.5C 3012.28,301.675 3012.61,302.675 3013.5,303.5C 3026.29,314.553 3041.29,320.553 3058.5,321.5C 3058.28,323.787 3057.61,325.953 3056.5,328C 3033.1,360.217 3002.77,383.55 2965.5,398C 2953.23,401.986 2940.73,404.82 2928,406.5C 2929.06,412.459 2930.39,418.459 2932,424.5C 2934.17,439.465 2931.17,453.132 2923,465.5C 2920.98,467.358 2918.81,469.025 2916.5,470.5C 2904.72,464.57 2892.72,464.07 2880.5,469C 2871.89,477.7 2869.06,488.2 2872,500.5C 2881.05,528.736 2890.88,556.736 2901.5,584.5C 2903.88,586.071 2906.55,586.904 2909.5,587C 2924.51,588.906 2939.51,590.906 2954.5,593C 2955,593.5 2955.5,594 2956,594.5C 2973.87,627.582 2991.21,660.915 3008,694.5C 3010.11,698.556 3012.61,702.389 3015.5,706C 3077.59,715.238 3139.59,724.905 3201.5,735C 3143.78,771.523 3085.78,807.523 3027.5,843C 3026.43,843.739 3025.76,844.739 3025.5,846C 3030.78,849.951 3035.45,854.618 3039.5,860C 3104.25,915.712 3168.91,972.046 3233.5,1029C 3246.44,1039.15 3258.77,1049.82 3270.5,1061C 3143.08,1039.28 3015.41,1018.95 2887.5,1000C 2877.13,998.989 2866.8,997.822 2856.5,996.5C 2856.24,997.978 2856.57,999.311 2857.5,1000.5C 2875.34,1010.25 2892.67,1020.75 2909.5,1032C 2912.5,1031.91 2914.5,1033.24 2915.5,1036C 2933.64,1048.24 2951.64,1060.74 2969.5,1073.5C 2989.24,1089.59 3008.57,1106.25 3027.5,1123.5 Z"/></g>
<g><path style="opacity:1" fill="#fefefe" d="M 822.5,155.5 C 824.527,155.338 826.527,155.505 828.5,156C 859.737,168.14 891.737,177.474 924.5,184C 975.505,193.182 1026.84,199.849 1078.5,204C 1099.15,205.016 1119.82,205.682 1140.5,206C 1313.5,206.333 1486.5,206.667 1659.5,207C 1654.2,245.333 1648.36,283.833 1642,322.5C 1641.5,326.486 1641.33,330.486 1641.5,334.5C 1583.83,334.5 1526.17,334.5 1468.5,334.5C 1471.82,321.235 1474.82,307.901 1477.5,294.5C 1432.17,294.333 1386.83,294.5 1341.5,295C 1333.75,323.172 1325.91,351.338 1318,379.5C 1317.5,382.146 1317.34,384.813 1317.5,387.5C 1389.77,383.28 1462.11,380.946 1534.5,380.5C 1511.08,414.086 1487.08,447.253 1462.5,480C 1435.56,482.145 1408.56,483.811 1381.5,485C 1347.48,485.843 1313.48,487.176 1279.5,489C 1269.61,513.967 1260.11,539.134 1251,564.5C 1250.22,565.944 1250.39,567.277 1251.5,568.5C 1256.79,567.505 1262.12,566.672 1267.5,566C 1294.2,564.496 1320.87,562.663 1347.5,560.5C 1337.24,590.943 1326.57,621.276 1315.5,651.5C 1211.51,663.09 1107.51,674.59 1003.5,686C 978.058,689.349 952.725,692.849 927.5,696.5C 927.34,694.801 927.506,693.134 928,691.5C 943.796,660.59 959.296,629.59 974.5,598.5C 992.805,595.394 1011.14,592.394 1029.5,589.5C 1039.55,565.85 1048.72,541.85 1057,517.5C 1061.66,506.201 1066.32,494.867 1071,483.5C 1071.7,480.072 1071.37,476.738 1070,473.5C 1057.46,444.437 1044.96,415.437 1032.5,386.5C 1046.48,385.682 1060.48,385.349 1074.5,385.5C 1075.45,378.772 1076.78,372.105 1078.5,365.5C 1078.17,364.833 1077.83,364.167 1077.5,363.5C 1046.97,365.349 1017.31,361.183 988.5,351C 983.616,347.77 978.282,345.437 972.5,344C 970,342.167 967.5,340.333 965,338.5C 964.316,337.216 964.483,336.049 965.5,335C 989.748,333.879 1013.75,330.879 1037.5,326C 1039.63,325.08 1041.63,323.913 1043.5,322.5C 1027.5,318.442 1011.5,314.275 995.5,310C 977.435,303.425 959.435,296.425 941.5,289C 921.744,279.361 903.911,266.861 888,251.5C 887.5,250.5 887,249.5 886.5,248.5C 895.165,248.199 903.831,249.033 912.5,251C 943.106,254.132 973.772,255.299 1004.5,254.5C 1004.5,253.5 1004.5,252.5 1004.5,251.5C 999.752,251.725 995.085,251.225 990.5,250C 972.21,244.57 954.043,238.737 936,232.5C 907.948,220.68 881.448,206.347 856.5,189.5C 851.032,184.879 845.366,180.379 839.5,176C 833.932,171.054 828.599,165.888 823.5,160.5C 822.691,158.929 822.357,157.262 822.5,155.5 Z"/></g>
<g><path style="opacity:1" fill="#fefefe" d="M 2818.5,409.5 C 2816.83,405.833 2814.17,403.167 2810.5,401.5C 2807.9,399.331 2804.9,397.831 2801.5,397C 2795.83,396.333 2790.17,396.333 2784.5,397C 2771.84,401.966 2768.34,410.799 2774,423.5C 2782.91,441.197 2790.91,459.197 2798,477.5C 2803.6,488.684 2808.6,500.017 2813,511.5C 2828.67,543.187 2843.01,575.521 2856,608.5C 2860.95,622.377 2860.61,636.044 2855,649.5C 2848.9,657.635 2841.07,663.468 2831.5,667C 2825.45,668.542 2819.45,670.209 2813.5,672C 2797.51,673.229 2781.51,673.563 2765.5,673C 2689.51,666.105 2613.51,659.105 2537.5,652C 2499.57,648.897 2461.9,643.897 2424.5,637C 2382.6,625.876 2343.93,608.043 2308.5,583.5C 2307.42,581.413 2305.75,580.08 2303.5,579.5C 2298.84,574.669 2294.34,569.669 2290,564.5C 2286.47,558.779 2283.47,552.779 2281,546.5C 2261.04,463.038 2240.71,379.705 2220,296.5C 2204.56,295.841 2189.06,295.174 2173.5,294.5C 2165.41,263.907 2157.74,233.24 2150.5,202.5C 2242.84,202.167 2335.17,202.5 2427.5,203.5C 2437.37,233.938 2446.71,264.605 2455.5,295.5C 2443.17,295.5 2430.83,295.5 2418.5,295.5C 2441.32,374.417 2464.32,453.417 2487.5,532.5C 2534.74,536.271 2581.74,540.604 2628.5,545.5C 2600.24,462.384 2571.57,379.384 2542.5,296.5C 2537.21,295.171 2531.54,294.504 2525.5,294.5C 2519.66,294.501 2513.99,294.834 2508.5,295.5C 2507.18,295.67 2506.01,295.337 2505,294.5C 2494.86,263.901 2485.02,233.235 2475.5,202.5C 2576.17,202.667 2676.83,202.5 2777.5,202C 2857.51,200.237 2936.18,189.237 3013.5,169C 3026.16,165.634 3038.33,161.134 3050,155.5C 3052.1,154.713 3054.27,154.38 3056.5,154.5C 3056.63,156.655 3056.13,158.655 3055,160.5C 3018.56,194.557 2976.73,220.057 2929.5,237C 2910.79,242.96 2892.12,248.46 2873.5,253.5C 2911.6,254.725 2949.6,252.725 2987.5,247.5C 2988.83,247.833 2990.17,248.167 2991.5,248.5C 2990.67,250.167 2989.83,251.833 2989,253.5C 2972.35,268.479 2953.85,280.646 2933.5,290C 2901.17,303.915 2867.84,314.749 2833.5,322.5C 2837.23,324.604 2841.23,326.104 2845.5,327C 2868.25,331.663 2891.25,334.163 2914.5,334.5C 2914.53,336.582 2913.86,338.416 2912.5,340C 2893.16,349.78 2872.83,356.78 2851.5,361C 2835.49,362.39 2819.49,363.89 2803.5,365.5C 2812.76,371.592 2820.59,379.259 2827,388.5C 2830.24,396.874 2830.24,405.208 2827,413.5C 2826.63,414.91 2825.8,415.91 2824.5,416.5C 2822.26,414.322 2820.26,411.988 2818.5,409.5 Z"/></g>
<g><path style="opacity:1" fill="#fefefe" d="M 2160.5,458.5 C 2160.72,461.546 2162.06,463.879 2164.5,465.5C 2177.17,489.638 2190.51,513.472 2204.5,537C 2220.09,538.632 2235.76,539.632 2251.5,540C 2255.19,540.801 2258.69,541.968 2262,543.5C 2271.58,571.581 2281.58,599.581 2292,627.5C 2292.49,629.134 2292.66,630.801 2292.5,632.5C 2277.14,631.663 2261.81,630.496 2246.5,629C 2183.83,626.867 2121.16,624.533 2058.5,622C 2057.58,621.626 2056.75,621.126 2056,620.5C 2035.67,581.833 2015.33,543.167 1995,504.5C 1993.75,503.789 1992.58,502.956 1991.5,502C 1909.17,501.333 1826.83,501.333 1744.5,502C 1720.99,542.677 1697.99,583.677 1675.5,625C 1594.69,629.209 1514.02,635.376 1433.5,643.5C 1442.37,613.694 1451.7,584.027 1461.5,554.5C 1473.8,553.002 1486.13,551.836 1498.5,551C 1504.73,550.087 1510.9,548.92 1517,547.5C 1573.56,457.143 1630.56,367.476 1688,278.5C 1712.24,240.364 1736.24,202.031 1760,163.5C 1761.17,162.107 1762.67,161.273 1764.5,161C 1840.21,160.17 1915.87,160.337 1991.5,161.5C 2047.58,260.669 2103.92,359.669 2160.5,458.5 Z"/></g>
<g><path style="opacity:1" fill="#025483" d="M 1877.5,245.5 C 1878.38,245.369 1879.04,245.702 1879.5,246.5C 1885.8,259.6 1892.47,272.434 1899.5,285C 1899.17,285.333 1898.83,285.667 1898.5,286C 1899.45,286.483 1900.45,286.649 1901.5,286.5C 1901.52,288.927 1902.02,291.26 1903,293.5C 1910.13,306.516 1917.47,319.516 1925,332.5C 1925.62,333.449 1925.45,334.282 1924.5,335C 1930.37,342.809 1935.37,351.142 1939.5,360C 1941.84,365.666 1944.84,371.332 1948.5,377C 1948.17,377.333 1947.83,377.667 1947.5,378C 1949.33,379.833 1951.17,381.667 1953,383.5C 1953.62,384.449 1953.45,385.282 1952.5,386C 1900.45,385.237 1848.29,385.404 1796,386.5C 1795.33,385.5 1795.33,384.5 1796,383.5C 1822.97,337.204 1850.14,291.204 1877.5,245.5 Z"/></g>
<g><path style="opacity:1" fill="#c4ced5" d="M 2508.5,295.5 C 2513.99,294.834 2519.66,294.501 2525.5,294.5C 2531.54,294.504 2537.21,295.171 2542.5,296.5C 2531.25,295.523 2519.91,295.189 2508.5,295.5 Z"/></g>
<g><path style="opacity:1" fill="#669bb5" d="M 2810.5,401.5 C 2814.17,403.167 2816.83,405.833 2818.5,409.5C 2815.5,407.167 2812.83,404.5 2810.5,401.5 Z"/></g>
<g><path style="opacity:1" fill="#7ca6bc" d="M 2160.5,458.5 C 2162.2,460.566 2163.53,462.9 2164.5,465.5C 2162.06,463.879 2160.72,461.546 2160.5,458.5 Z"/></g>
<g><path style="opacity:1" fill="#7aa5bb" d="M 2303.5,579.5 C 2305.75,580.08 2307.42,581.413 2308.5,583.5C 2306.25,582.92 2304.58,581.587 2303.5,579.5 Z"/></g>
<g><path style="opacity:1" fill="#d9264e" d="M 1829.5,662.5 C 1887.32,662.646 1947.65,662.646 2010.5,662.5C 2016.7,663.147 2022.86,663.814 2029,664.5C 2035.14,663.784 2041.64,663.451 2048.5,663.5C 2058.36,664.155 2068.2,664.822 2078,665.5C 2079.67,665.167 2081.33,664.833 2083,664.5C 2087,665.167 2091,665.833 2095,666.5C 2098.67,666.167 2102.33,665.833 2106,665.5C 2111.67,666.167 2117.33,666.833 2123,667.5C 2138.25,667.551 2153.25,667.551 2168,667.5C 2169.67,668.167 2171.33,668.833 2173,669.5C 2176.18,668.744 2179.52,668.411 2183,668.5C 2189.38,669.128 2195.71,669.795 2202,670.5C 2210.18,670.096 2219.18,670.096 2229,670.5C 2236.7,671.644 2244.7,672.644 2253,673.5C 2254.67,673.167 2256.33,672.833 2258,672.5C 2262,673.167 2266,673.833 2270,674.5C 2277.06,674.355 2284.39,674.355 2292,674.5C 2293.67,675.167 2295.33,675.833 2297,676.5C 2307.19,676.776 2317.19,676.776 2327,676.5C 2332.76,676.994 2338.43,677.994 2344,679.5C 2345,679.167 2346,678.833 2347,678.5C 2350.33,679.167 2353.67,679.833 2357,680.5C 2359.33,680.167 2361.67,679.833 2364,679.5C 2371.67,680.5 2379.33,681.5 2387,682.5C 2389.36,681.488 2392.03,681.821 2395,683.5C 2401.84,683.096 2409.51,683.096 2418,683.5C 2421.67,684.167 2425.33,684.833 2429,685.5C 2431.04,684.715 2433.04,685.048 2435,686.5C 2436.67,686.167 2438.33,685.833 2440,685.5C 2443,686.167 2446,686.833 2449,687.5C 2454.33,687.5 2459.67,687.5 2465,687.5C 2468.34,689.012 2471.34,689.346 2474,688.5C 2479.64,690.126 2484.64,690.46 2489,689.5C 2498.13,690.237 2507.46,691.57 2517,693.5C 2518,693.167 2519,692.833 2520,692.5C 2526.33,693.5 2532.67,694.5 2539,695.5C 2540,695.167 2541,694.833 2542,694.5C 2543.33,695.167 2544.67,695.833 2546,696.5C 2547,696.167 2548,695.833 2549,695.5C 2552.33,696.167 2555.67,696.833 2559,697.5C 2563.46,697.031 2568.46,697.031 2574,697.5C 2575,698.167 2576,698.833 2577,699.5C 2581.67,699.5 2586.33,699.5 2591,699.5C 2593.33,700.167 2595.67,700.833 2598,701.5C 2601.4,701.41 2604.73,701.41 2608,701.5C 2609.67,702.167 2611.33,702.833 2613,703.5C 2618.47,702.966 2624.47,702.966 2631,703.5C 2633.67,704.167 2636.33,704.833 2639,705.5C 2641.04,704.715 2643.04,705.048 2645,706.5C 2646,706.167 2647,705.833 2648,705.5C 2650.33,706.167 2652.67,706.833 2655,707.5C 2659.06,707.432 2663.06,707.432 2667,707.5C 2668.33,708.167 2669.67,708.833 2671,709.5C 2676,709.5 2681,709.5 2686,709.5C 2693.49,710.529 2701.15,711.862 2709,713.5C 2710,713.167 2711,712.833 2712,712.5C 2717,713.5 2722,714.5 2727,715.5C 2729.04,714.715 2731.04,715.048 2733,716.5C 2737.6,716.734 2741.94,716.734 2746,716.5C 2750.43,717.067 2754.76,718.067 2759,719.5C 2759.41,719.043 2759.91,718.709 2760.5,718.5C 2802.55,724.382 2845.05,729.715 2888,734.5C 2889.71,735.763 2891.37,736.097 2893,735.5C 2914.51,738.36 2936.18,741.693 2958,745.5C 2959.78,744.521 2961.45,744.854 2963,746.5C 2966.33,746.5 2969.67,746.5 2973,746.5C 2976.76,747.133 2980.43,748.133 2984,749.5C 2985.39,748.185 2986.39,748.519 2987,750.5C 2991.44,750.245 2995.77,750.245 3000,750.5C 3003.37,751.374 3006.7,752.374 3010,753.5C 3011,753.167 3012,752.833 3013,752.5C 3017.02,753.393 3021.02,754.393 3025,755.5C 3026.78,754.521 3028.45,754.854 3030,756.5C 3030.33,756.167 3030.67,755.833 3031,755.5C 3041.97,757.63 3052.8,759.463 3063.5,761C 3064.83,762.84 3064.67,763.34 3063,762.5C 3062.56,764.679 3061.56,765.345 3060,764.5C 3057.04,766.822 3054.04,769.155 3051,771.5C 3014.48,793.624 2977.64,816.624 2940.5,840.5C 2940.67,841.167 2940.83,841.833 2941,842.5C 2985.75,877.7 3030.08,913.366 3074,949.5C 3074.33,949.167 3074.67,948.833 3075,948.5C 3084.02,956.596 3093.52,964.096 3103.5,971C 3105.33,972.489 3106.17,974.322 3106,976.5C 3027.4,961.991 2947.57,949.325 2866.5,938.5C 2852.99,935.623 2839.32,933.79 2825.5,933C 2824.2,932.196 2823.53,931.029 2823.5,929.5C 2825.82,920.569 2828.48,911.402 2831.5,902C 2830.9,900.372 2831.24,898.705 2832.5,897C 2832.17,896.667 2831.83,896.333 2831.5,896C 2832.91,892.613 2833.91,889.28 2834.5,886C 2833.79,884.657 2834.12,883.324 2835.5,882C 2835.12,876.877 2835.12,871.21 2835.5,865C 2837.18,862.028 2837.51,859.361 2836.5,857C 2837.17,854 2837.83,851 2838.5,848C 2838.6,843.726 2837.93,838.726 2836.5,833C 2837.35,830.339 2837.01,827.339 2835.5,824C 2835.83,822.333 2836.17,820.667 2836.5,819C 2834.99,815.661 2834.65,812.661 2835.5,810C 2834.17,805.667 2832.83,801.333 2831.5,797C 2831.83,796.667 2832.17,796.333 2832.5,796C 2831.32,792.782 2829.32,790.282 2826.5,788.5C 2801.88,811.137 2774.88,831.304 2745.5,849C 2710.28,868.729 2673.94,887.062 2636.5,904C 2632.99,905.558 2629.33,906.392 2625.5,906.5C 2603.26,904.318 2581.1,901.985 2559,899.5C 2558.59,899.957 2558.09,900.291 2557.5,900.5C 2546.72,898.563 2535.89,896.896 2525,895.5C 2524,895.833 2523,896.167 2522,896.5C 2518.67,895.833 2515.33,895.167 2512,894.5C 2506.2,894.48 2500.36,894.48 2494.5,894.5C 2474.12,891.77 2453.95,889.436 2434,887.5C 2433,887.833 2432,888.167 2431,888.5C 2419.09,887.263 2407.09,885.596 2395,883.5C 2394,883.833 2393,884.167 2392,884.5C 2385.36,883.321 2378.69,882.321 2372,881.5C 2362.75,881.659 2352.91,881.659 2342.5,881.5C 2339.96,880.885 2337.46,880.218 2335,879.5C 2330.47,879.53 2325.97,879.53 2321.5,879.5C 2317.97,878.869 2314.47,878.202 2311,877.5C 2310,877.833 2309,878.167 2308,878.5C 2300.35,877.39 2292.68,876.39 2285,875.5C 2284,875.833 2283,876.167 2282,876.5C 2271.33,875.541 2260.66,874.541 2250,873.5C 2249,873.833 2248,874.167 2247,874.5C 2239.51,873.867 2231.84,872.867 2224,871.5C 2223,871.833 2222,872.167 2221,872.5C 2202.81,870.686 2185.14,869.353 2168,868.5C 2150.33,868.5 2132.67,868.5 2115,868.5C 2110.67,867.833 2106.33,867.167 2102,866.5C 2100.33,866.833 2098.67,867.167 2097,867.5C 2089.67,866.833 2082.33,866.167 2075,865.5C 2073.33,865.833 2071.67,866.167 2070,866.5C 2062.67,865.833 2055.33,865.167 2048,864.5C 2046.33,864.833 2044.67,865.167 2043,865.5C 2017.89,864.322 1992.23,863.322 1966,862.5C 1937.82,862.565 1909.49,862.565 1881,862.5C 1865.67,863.167 1850.33,863.833 1835,864.5C 1834,864.167 1833,863.833 1832,863.5C 1813.52,864.784 1795.52,865.784 1778,866.5C 1766.23,866.354 1754.23,866.354 1742,866.5C 1735,867.167 1728,867.833 1721,868.5C 1708.67,868.5 1696.33,868.5 1684,868.5C 1610,872.744 1536,877.744 1462,883.5C 1461.67,883.167 1461.33,882.833 1461,882.5C 1440.51,884.924 1419.51,887.258 1398,889.5C 1397.67,889.167 1397.33,888.833 1397,888.5C 1376.67,890.833 1356.33,893.167 1336,895.5C 1335,895.167 1334,894.833 1333,894.5C 1326,895.5 1319,896.5 1312,897.5C 1309.64,896.488 1306.97,896.821 1304,898.5C 1303,898.167 1302,897.833 1301,897.5C 1285.46,900.108 1270.13,902.108 1255,903.5C 1254.67,903.167 1254.33,902.833 1254,902.5C 1249.35,903.593 1244.68,904.593 1240,905.5C 1239,905.167 1238,904.833 1237,904.5C 1229.24,906.864 1221.41,907.031 1213.5,905C 1160.86,883.019 1110.86,856.352 1063.5,825C 1049.63,815.467 1036.63,804.801 1024.5,793C 1021.73,790.084 1018.89,789.918 1016,792.5C 1005.63,838.52 1007.96,883.52 1023,927.5C 1023.8,929.259 1023.63,930.926 1022.5,932.5C 930.066,944.948 837.066,959.282 743.5,975.5C 743.351,974.448 743.517,973.448 744,972.5C 797.402,929.262 851.235,886.596 905.5,844.5C 907.447,842.724 907.78,840.724 906.5,838.5C 865.968,813.07 825.301,787.903 784.5,763C 785.833,762.333 785.833,761.667 784.5,761C 790.35,760.663 796.016,759.497 801.5,757.5C 804.366,757.554 807.199,757.554 810,757.5C 812.972,755.821 815.639,755.488 818,756.5C 823.159,754.059 827.826,753.392 832,754.5C 833.555,752.854 835.221,752.521 837,753.5C 841.969,752.04 846.969,750.706 852,749.5C 854.791,750.291 857.957,749.958 861.5,748.5C 863.164,749.223 864.831,748.89 866.5,747.5C 867.086,747.709 867.586,748.043 868,748.5C 886.319,745.456 904.819,742.456 923.5,739.5C 926.634,739.446 929.801,739.446 933,739.5C 934.555,737.854 936.221,737.521 938,738.5C 942.379,737.579 946.713,736.579 951,735.5C 952,735.833 953,736.167 954,736.5C 957.938,735.224 961.938,734.224 966,733.5C 967.667,733.833 969.333,734.167 971,734.5C 994.134,730.696 1017.8,727.029 1042,723.5C 1044.36,724.512 1047.03,724.179 1050,722.5C 1054.27,722.233 1058.27,722.233 1062,722.5C 1083.19,719.224 1104.19,716.224 1125,713.5C 1126,713.833 1127,714.167 1128,714.5C 1135.41,712.841 1142.91,711.508 1150.5,710.5C 1151.09,710.709 1151.59,711.043 1152,711.5C 1157.97,710.303 1163.97,709.303 1170,708.5C 1172.66,709.346 1175.66,709.012 1179,707.5C 1180,707.833 1181,708.167 1182,708.5C 1193.34,706.915 1204.68,705.249 1216,703.5C 1217,703.833 1218,704.167 1219,704.5C 1235.38,701.833 1252.38,699.5 1270,697.5C 1271,697.833 1272,698.167 1273,698.5C 1280.63,697.47 1287.97,696.47 1295,695.5C 1296,695.833 1297,696.167 1298,696.5C 1301,695.833 1304,695.167 1307,694.5C 1311.61,694.445 1316.27,694.445 1321,694.5C 1327.11,693.271 1333.27,692.271 1339.5,691.5C 1340.09,691.709 1340.59,692.043 1341,692.5C 1343,691.833 1345,691.167 1347,690.5C 1351.94,690.292 1356.6,690.292 1361,690.5C 1367.73,689.051 1374.4,688.051 1381,687.5C 1382,687.833 1383,688.167 1384,688.5C 1397.97,687.335 1412.3,685.668 1427,683.5C 1428.67,683.833 1430.33,684.167 1432,684.5C 1434.33,683.833 1436.67,683.167 1439,682.5C 1440,682.833 1441,683.167 1442,683.5C 1448.93,681.889 1454.93,681.556 1460,682.5C 1474.34,681.227 1488.67,679.893 1503,678.5C 1505.66,679.346 1508.66,679.012 1512,677.5C 1518.67,677.5 1525.33,677.5 1532,677.5C 1535.34,675.988 1538.34,675.654 1541,676.5C 1550.49,675.872 1560.15,674.872 1570,673.5C 1572.33,673.833 1574.67,674.167 1577,674.5C 1584.67,673.5 1592.33,672.5 1600,671.5C 1601.67,671.833 1603.33,672.167 1605,672.5C 1607.46,671.782 1609.96,671.115 1612.5,670.5C 1614.42,670.63 1616.26,670.964 1618,671.5C 1623.67,670.833 1629.33,670.167 1635,669.5C 1645.67,669.5 1656.33,669.5 1667,669.5C 1670,668.833 1673,668.167 1676,667.5C 1689.51,667.718 1703.84,667.718 1719,667.5C 1723.67,666.833 1728.33,666.167 1733,665.5C 1735.33,665.833 1737.67,666.167 1740,666.5C 1759.7,665.406 1779.7,664.406 1800,663.5C 1806.52,663.335 1812.86,663.668 1819,664.5C 1822.6,663.865 1826.1,663.198 1829.5,662.5 Z"/></g>
<g><path style="opacity:1" fill="#fefefe" d="M 1934.5,706.5 C 1946.54,706.208 1958.7,706.542 1971,707.5C 1976.82,736.46 1982.49,765.46 1988,794.5C 1991,795.167 1994,795.833 1997,796.5C 1997.41,803.673 1997.57,810.673 1997.5,817.5C 1997.29,818.086 1996.96,818.586 1996.5,819C 1984.17,819.667 1971.83,819.667 1959.5,819C 1958.87,818.25 1958.37,817.416 1958,816.5C 1956.85,808.854 1955.85,801.187 1955,793.5C 1948,792.167 1941,792.167 1934,793.5C 1932.34,802.106 1931.17,810.773 1930.5,819.5C 1917.83,819.667 1905.16,819.5 1892.5,819C 1891.52,811.587 1891.19,804.087 1891.5,796.5C 1895.01,797.006 1898.17,796.34 1901,794.5C 1906.33,765.832 1911.67,737.166 1917,708.5C 1922.93,707.852 1928.77,707.186 1934.5,706.5 Z"/></g>
<g><path style="opacity:1" fill="#fefefe" d="M 2022.5,773.5 C 2023.5,760.01 2023.83,746.344 2023.5,732.5C 2022.17,732.5 2020.83,732.5 2019.5,732.5C 2016.83,732.5 2014.17,732.5 2011.5,732.5C 2011.48,738.304 2011.15,743.97 2010.5,749.5C 2003.5,749.5 1996.5,749.5 1989.5,749.5C 1987.88,748.159 1986.88,746.326 1986.5,744C 1986.2,732.129 1986.53,720.129 1987.5,708C 2010.95,708.717 2034.12,709.55 2057,710.5C 2059.18,710.572 2061.18,710.238 2063,709.5C 2072.66,711.179 2081.66,711.512 2090,710.5C 2090.41,710.957 2090.91,711.291 2091.5,711.5C 2092.83,725.5 2092.83,739.5 2091.5,753.5C 2084.22,752.535 2076.89,752.201 2069.5,752.5C 2069.5,746.5 2069.5,740.5 2069.5,734.5C 2065.5,734.5 2061.5,734.5 2057.5,734.5C 2056.7,756.567 2056.7,777.9 2057.5,798.5C 2060.17,799.269 2062.67,799.602 2065,799.5C 2065.5,807.159 2065.67,814.826 2065.5,822.5C 2048.82,821.966 2032.16,821.3 2015.5,820.5C 2015.33,812.826 2015.5,805.159 2016,797.5C 2018.07,796.736 2020.24,796.236 2022.5,796C 2023.02,795.439 2023.36,794.772 2023.5,794C 2023.43,786.689 2023.1,779.855 2022.5,773.5 Z"/></g>
<g><path style="opacity:1" fill="#fefefe" d="M 1798.5,708.5 C 1805.5,708.5 1812.5,708.5 1819.5,708.5C 1824.81,737.195 1830.31,765.862 1836,794.5C 1838.8,796.344 1841.97,797.011 1845.5,796.5C 1844.93,804.397 1844.6,811.897 1844.5,819C 1832.97,819.157 1821.47,819.99 1810,821.5C 1808.03,821.532 1806.53,820.698 1805.5,819C 1805.83,818.667 1806.17,818.333 1806.5,818C 1804.79,810.588 1803.46,803.088 1802.5,795.5C 1795.53,794.503 1788.53,794.17 1781.5,794.5C 1780.41,803.49 1779.41,812.49 1778.5,821.5C 1765.94,821.995 1753.44,822.662 1741,823.5C 1739.37,816 1739.04,808.333 1740,800.5C 1743.14,799.921 1746.14,798.921 1749,797.5C 1754.12,768.796 1759.45,740.129 1765,711.5C 1765.75,710.874 1766.58,710.374 1767.5,710C 1778.01,709.83 1788.34,709.33 1798.5,708.5 Z"/></g>
<g><path style="opacity:1" fill="#fefefe" d="M 2107.5,798.5 C 2108.83,777.33 2108.83,755.996 2107.5,734.5C 2106.89,734.624 2106.56,734.957 2106.5,735.5C 2104.56,734.85 2102.56,734.517 2100.5,734.5C 2100.18,726.58 2100.52,718.747 2101.5,711C 2116.07,711.304 2131.23,712.138 2147,713.5C 2147.74,712.359 2148.57,712.359 2149.5,713.5C 2150.5,721.472 2150.83,729.472 2150.5,737.5C 2147.87,736.908 2145.21,736.575 2142.5,736.5C 2142.26,755.213 2141.93,773.713 2141.5,792C 2142.28,794.74 2142.78,797.574 2143,800.5C 2146.23,801.484 2149.56,802.151 2153,802.5C 2154.73,802.546 2156.23,802.046 2157.5,801C 2156.17,795 2156.17,789 2157.5,783C 2167.83,782.874 2178.16,783.041 2188.5,783.5C 2188.53,797.965 2188.53,812.465 2188.5,827C 2159.36,826.16 2130.02,824.66 2100.5,822.5C 2100.33,815.159 2100.5,807.826 2101,800.5C 2103.28,799.883 2105.44,799.216 2107.5,798.5 Z"/></g>
<g><path style="opacity:1" fill="#fefefe" d="M 1710.5,711.5 C 1721.89,711.018 1729.39,716.352 1733,727.5C 1733.19,733.083 1733.69,738.583 1734.5,744C 1733.22,759.358 1733.22,774.691 1734.5,790C 1733.74,796.791 1732.91,803.625 1732,810.5C 1729.89,814.604 1727.06,818.104 1723.5,821C 1714.53,823.723 1705.53,824.889 1696.5,824.5C 1680.58,825.342 1664.42,826.342 1648,827.5C 1645.83,827.167 1643.67,826.833 1641.5,826.5C 1640.77,819.614 1640.6,812.281 1641,804.5C 1643.54,803.457 1645.87,802.791 1648,802.5C 1648.5,781.503 1648.67,760.503 1648.5,739.5C 1645.6,739.875 1642.94,739.375 1640.5,738C 1641.71,730.551 1641.71,723.051 1640.5,715.5C 1664.26,714.18 1687.6,712.847 1710.5,711.5 Z"/></g>
<g><path style="opacity:1" fill="#fefefe" d="M 1579.5,743.5 C 1579.5,735.5 1579.5,727.5 1579.5,719.5C 1581.41,719.784 1583.08,719.451 1584.5,718.5C 1585.15,718.804 1585.82,719.137 1586.5,719.5C 1600.46,718.312 1614.46,717.312 1628.5,716.5C 1628.19,724.087 1628.52,731.587 1629.5,739C 1627.11,740.096 1624.61,740.929 1622,741.5C 1621.33,762.5 1621.33,783.5 1622,804.5C 1624.04,805.423 1626.21,805.756 1628.5,805.5C 1628.19,813.087 1628.52,820.587 1629.5,828C 1627.44,828.311 1625.44,828.811 1623.5,829.5C 1622.91,829.291 1622.41,828.957 1622,828.5C 1608.11,829.57 1593.94,830.57 1579.5,831.5C 1579.5,823.5 1579.5,815.5 1579.5,807.5C 1581.79,807.756 1583.96,807.423 1586,806.5C 1586.67,785.5 1586.67,764.5 1586,743.5C 1583.88,742.395 1581.71,742.395 1579.5,743.5 Z"/></g>
<g><path style="opacity:1" fill="#fefefe" d="M 2221.5,716.5 C 2239.75,719.073 2257.75,720.407 2275.5,720.5C 2281.17,750.494 2286.83,780.494 2292.5,810.5C 2294.79,810.756 2296.96,810.423 2299,809.5C 2301.12,810.22 2301.62,811.387 2300.5,813C 2301.17,819.333 2301.83,825.667 2302.5,832C 2301.83,832.667 2301.17,833.333 2300.5,834C 2287.83,833.417 2275.17,832.583 2262.5,831.5C 2261.39,822.596 2260.06,813.762 2258.5,805C 2251.87,803.695 2245.21,803.362 2238.5,804C 2236.59,812.017 2235.43,820.184 2235,828.5C 2231.44,829.23 2227.94,829.563 2224.5,829.5C 2215.18,828.601 2205.85,827.767 2196.5,827C 2195.28,819.217 2195.28,811.384 2196.5,803.5C 2199.45,803.777 2202.28,803.444 2205,802.5C 2210.61,773.832 2216.11,745.165 2221.5,716.5 Z"/></g>
<g><path style="opacity:1" fill="#cb5474" d="M 1584.5,718.5 C 1583.08,719.451 1581.41,719.784 1579.5,719.5C 1579.5,727.5 1579.5,735.5 1579.5,743.5C 1578.5,735.92 1578.17,727.587 1578.5,718.5C 1580.5,718.5 1582.5,718.5 1584.5,718.5 Z"/></g>
<g><path style="opacity:1" fill="#fefefe" d="M 1529.5,722.5 C 1536.02,722.142 1542.69,722.642 1549.5,724C 1557.5,727.33 1561.5,733.33 1561.5,742C 1561.65,748.885 1561.15,756.052 1560,763.5C 1559.19,766.446 1557.86,769.112 1556,771.5C 1553.38,773.221 1550.88,775.054 1548.5,777C 1552.26,779.758 1555.76,782.925 1559,786.5C 1560.36,794.095 1560.86,801.762 1560.5,809.5C 1563.17,809.5 1565.83,809.5 1568.5,809.5C 1568.5,817.167 1568.5,824.833 1568.5,832.5C 1557.21,833.996 1545.87,834.496 1534.5,834C 1532.48,833.55 1530.65,832.717 1529,831.5C 1527.59,817.885 1527.09,804.218 1527.5,790.5C 1523.85,790.746 1520.35,790.746 1517,790.5C 1514.67,791.167 1512.33,791.833 1510,792.5C 1509.5,807.163 1509.33,821.83 1509.5,836.5C 1495.65,838.379 1481.81,839.045 1468,838.5C 1467.33,831.5 1467.33,824.5 1468,817.5C 1470.3,815.971 1472.8,814.804 1475.5,814C 1474.42,794.034 1474.42,774.034 1475.5,754C 1473.41,752.075 1470.91,750.908 1468,750.5C 1467.5,742.841 1467.33,735.174 1467.5,727.5C 1488.34,726.345 1509.01,724.679 1529.5,722.5 Z"/></g>
<g><path style="opacity:1" fill="#fefefe" d="M 2307.5,721.5 C 2320.46,722.871 2333.46,724.371 2346.5,726C 2357.29,746.408 2368.45,766.575 2380,786.5C 2380.5,767.17 2380.67,747.836 2380.5,728.5C 2392.52,729.32 2404.52,730.486 2416.5,732C 2417,732.5 2417.5,733 2418,733.5C 2418.5,740.826 2418.67,748.159 2418.5,755.5C 2415.52,755.173 2412.68,755.173 2410,755.5C 2409.33,776.5 2409.33,797.5 2410,818.5C 2412.8,819.128 2415.47,820.128 2418,821.5C 2418.5,828.826 2418.67,836.159 2418.5,843.5C 2405.11,842.885 2391.78,841.718 2378.5,840C 2367.34,820.18 2356.34,800.347 2345.5,780.5C 2344.77,800.262 2344.77,819.262 2345.5,837.5C 2332.82,836.555 2320.16,835.388 2307.5,834C 2307.83,825.974 2307.49,818.308 2306.5,811C 2309.15,810.503 2311.81,810.336 2314.5,810.5C 2313.67,790.751 2313.67,771.418 2314.5,752.5C 2314.33,750.833 2314.17,749.167 2314,747.5C 2311.67,746.5 2309.33,745.5 2307,744.5C 2306.2,736.754 2306.37,729.087 2307.5,721.5 Z"/></g>
<g><path style="opacity:1" fill="#fefefe" d="M 1419.5,731.5 C 1428.57,731.119 1437.57,731.619 1446.5,733C 1453.47,738.775 1456.64,746.275 1456,755.5C 1456.17,764.5 1456.33,773.5 1456.5,782.5C 1456.13,792.481 1456.13,802.314 1456.5,812C 1455.6,817.108 1454.76,822.275 1454,827.5C 1451.37,834.463 1446.54,838.963 1439.5,841C 1421.31,844.323 1402.97,845.656 1384.5,845C 1376.91,843.079 1372.41,838.246 1371,830.5C 1370.33,804.833 1370.33,779.167 1371,753.5C 1372.72,743.449 1378.55,737.282 1388.5,735C 1398.96,733.673 1409.3,732.506 1419.5,731.5 Z"/></g>
<g><path style="opacity:1" fill="#cb5474" d="M 2019.5,732.5 C 2020.83,732.5 2022.17,732.5 2023.5,732.5C 2023.83,746.344 2023.5,760.01 2022.5,773.5C 2022.44,760.346 2022.44,747.013 2022.5,733.5C 2021.21,733.737 2020.21,733.404 2019.5,732.5 Z"/></g>
<g><path style="opacity:1" fill="#fefefe" d="M 2426.5,731.5 C 2461.09,734.863 2495.76,738.03 2530.5,741C 2531.31,754.2 2531.48,767.7 2531,781.5C 2529.77,782.108 2528.44,782.441 2527,782.5C 2520.16,781.807 2513.33,781.141 2506.5,780.5C 2506.5,774.5 2506.5,768.5 2506.5,762.5C 2502.82,762.276 2499.15,761.942 2495.5,761.5C 2495.18,782.395 2495.18,804.061 2495.5,826.5C 2497.79,826.244 2499.96,826.577 2502,827.5C 2502.83,835.188 2502.66,842.855 2501.5,850.5C 2485.24,849.145 2469.24,847.812 2453.5,846.5C 2453.33,839.339 2453.33,832.172 2453.5,825C 2453.83,824.167 2454.17,823.333 2454.5,822.5C 2456.79,823.42 2459.12,823.42 2461.5,822.5C 2460.42,801.639 2460.26,780.973 2461,760.5C 2460.01,759.061 2458.68,758.061 2457,757.5C 2454.43,758.245 2451.93,758.579 2449.5,758.5C 2449.47,764.015 2449.13,769.515 2448.5,775C 2441.07,775.184 2433.74,774.517 2426.5,773C 2425.17,759.167 2425.17,745.333 2426.5,731.5 Z"/></g>
<g><path style="opacity:1" fill="#cb5474" d="M 2106.5,735.5 C 2106.56,734.957 2106.89,734.624 2107.5,734.5C 2108.83,755.996 2108.83,777.33 2107.5,798.5C 2107.83,777.327 2107.5,756.327 2106.5,735.5 Z"/></g>
<g><path style="opacity:1" fill="#dd3458" d="M 1699.5,755.5 C 1698.31,755.866 1697.64,756.699 1697.5,758C 1697.97,765.1 1697.97,772.267 1697.5,779.5C 1696.91,778.234 1696.41,776.901 1696,775.5C 1695.67,776.167 1695.33,776.833 1695,777.5C 1694.82,773.459 1695.15,770.792 1696,769.5C 1695.16,766.536 1694.16,766.203 1693,768.5C 1692.84,766.324 1692,764.491 1690.5,763C 1690.83,762 1691.17,761 1691.5,760C 1690.83,758.667 1690.17,757.333 1689.5,756C 1691.16,753.367 1691.66,750.534 1691,747.5C 1689.51,748.728 1688.01,748.728 1686.5,747.5C 1685.91,746.234 1685.41,744.901 1685,743.5C 1684.33,761.167 1684.33,778.833 1685,796.5C 1685.19,793.964 1685.69,791.631 1686.5,789.5C 1688.92,789.684 1688.92,790.351 1686.5,791.5C 1687.81,792.912 1688.64,794.579 1689,796.5C 1691.43,795.707 1693.77,795.374 1696,795.5C 1696.28,796.416 1696.78,797.082 1697.5,797.5C 1698.4,798.209 1698.74,799.209 1698.5,800.5C 1693.18,800.652 1688.02,800.652 1683,800.5C 1683.51,781.663 1683.34,763.497 1682.5,746C 1683.12,743.527 1683.79,741.027 1684.5,738.5C 1689.56,737.653 1694.4,736.986 1699,736.5C 1699.5,742.825 1699.67,749.158 1699.5,755.5 Z"/></g>
<g><path style="opacity:1" fill="#fefefe" d="M 1310.5,741.5 C 1314.5,741.5 1318.5,741.5 1322.5,741.5C 1322.67,749.174 1322.5,756.841 1322,764.5C 1319.62,765.435 1317.12,765.768 1314.5,765.5C 1314.27,786.786 1314.27,808.119 1314.5,829.5C 1319.79,829.976 1324.79,829.142 1329.5,827C 1328.17,821 1328.17,815 1329.5,809C 1339.75,807.204 1350.08,806.038 1360.5,805.5C 1360.64,820.008 1360.64,834.175 1360.5,848C 1331.67,851.542 1302.83,855.042 1274,858.5C 1272.44,850.913 1272.1,843.246 1273,835.5C 1275.04,833.928 1277.37,832.928 1280,832.5C 1280.5,811.503 1280.67,790.503 1280.5,769.5C 1277.88,769.768 1275.38,769.435 1273,768.5C 1272.19,760.92 1272.35,753.42 1273.5,746C 1285.97,744.357 1298.3,742.857 1310.5,741.5 Z"/></g>
<g><path style="opacity:1" fill="#fefefe" d="M 2537.5,742.5 C 2554.12,744.607 2570.79,746.274 2587.5,747.5C 2587.5,755.5 2587.5,763.5 2587.5,771.5C 2584.83,771.5 2582.17,771.5 2579.5,771.5C 2579.5,792.833 2579.5,814.167 2579.5,835.5C 2582.12,835.232 2584.62,835.565 2587,836.5C 2587.19,842.416 2587.69,848.249 2588.5,854C 2587.59,855.699 2587.26,857.533 2587.5,859.5C 2570.81,857.964 2554.14,856.298 2537.5,854.5C 2537.5,846.5 2537.5,838.5 2537.5,830.5C 2540.17,830.5 2542.83,830.5 2545.5,830.5C 2545.5,809.167 2545.5,787.833 2545.5,766.5C 2542.83,766.5 2540.17,766.5 2537.5,766.5C 2537.5,758.5 2537.5,750.5 2537.5,742.5 Z"/></g>
<g><path style="opacity:1" fill="#cb5474" d="M 1686.5,747.5 C 1685.47,760.495 1685.47,774.495 1686.5,789.5C 1685.69,791.631 1685.19,793.964 1685,796.5C 1684.33,778.833 1684.33,761.167 1685,743.5C 1685.41,744.901 1685.91,746.234 1686.5,747.5 Z"/></g>
<g><path style="opacity:1" fill="#fefefe" d="M 1225.5,841.5 C 1224.51,848.648 1224.18,855.981 1224.5,863.5C 1223.21,863.263 1222.21,863.596 1221.5,864.5C 1213.83,865.167 1206.17,865.833 1198.5,866.5C 1194.29,866.717 1190.29,867.383 1186.5,868.5C 1182.79,868.658 1179.29,868.658 1176,868.5C 1174.24,860.859 1174.07,853.192 1175.5,845.5C 1177.94,845.683 1180.1,845.016 1182,843.5C 1182.5,824.503 1182.67,805.503 1182.5,786.5C 1182.5,784.5 1182.5,782.5 1182.5,780.5C 1179.47,780.868 1176.8,780.202 1174.5,778.5C 1175.46,771.254 1175.8,763.92 1175.5,756.5C 1204.04,753.537 1232.54,750.203 1261,746.5C 1262.5,746.833 1264,747.167 1265.5,747.5C 1264.53,758.608 1264.36,769.941 1265,781.5C 1255.3,783.525 1245.47,784.859 1235.5,785.5C 1235.82,781.445 1235.49,777.445 1234.5,773.5C 1229.16,774.184 1223.82,775.017 1218.5,776C 1217.52,782.41 1217.19,788.91 1217.5,795.5C 1225.84,794.916 1234.17,794.249 1242.5,793.5C 1242.65,800.459 1242.65,807.292 1242.5,814C 1234.21,814.69 1226.05,815.857 1218,817.5C 1217.5,824.826 1217.33,832.159 1217.5,839.5C 1219.86,839.337 1222.19,839.503 1224.5,840C 1225.06,840.383 1225.39,840.883 1225.5,841.5 Z"/></g>
<g><path style="opacity:1" fill="#ce5171" d="M 1945.5,742.5 C 1946.91,747.63 1947.91,752.963 1948.5,758.5C 1944.11,758.543 1943.77,758.043 1947.5,757C 1946.33,754.32 1945.33,751.653 1944.5,749C 1944.39,746.83 1944.72,744.664 1945.5,742.5 Z"/></g>
<g><path style="opacity:1" fill="#e6355b" d="M 1945.5,742.5 C 1944.72,744.664 1944.39,746.83 1944.5,749C 1945.33,751.653 1946.33,754.32 1947.5,757C 1943.77,758.043 1944.11,758.543 1948.5,758.5C 1949.53,762.739 1950.2,767.072 1950.5,771.5C 1946.23,771.543 1942.23,771.877 1938.5,772.5C 1938.17,772 1937.83,771.5 1937.5,771C 1939.03,758.968 1941.37,747.135 1944.5,735.5C 1945.47,737.743 1945.81,740.076 1945.5,742.5 Z"/></g>
<g><path style="opacity:1" fill="#cc5978" d="M 1989.5,749.5 C 1996.5,749.5 2003.5,749.5 2010.5,749.5C 2010.19,750.389 2009.02,751.055 2007,751.5C 2001.87,751.095 1997.2,751.095 1993,751.5C 1991.7,750.915 1990.53,750.249 1989.5,749.5 Z"/></g>
<g><path style="opacity:1" fill="#ed2855" d="M 1517.5,748.5 C 1520.5,748.5 1523.5,748.5 1526.5,748.5C 1524.5,751.185 1524.5,753.685 1526.5,756C 1525.12,757.324 1524.79,758.657 1525.5,760C 1523.98,761.897 1523.32,764.064 1523.5,766.5C 1524.79,766.263 1525.79,766.596 1526.5,767.5C 1523.21,768.781 1519.88,769.115 1516.5,768.5C 1514.04,768.773 1512.38,767.773 1511.5,765.5C 1512.49,762.678 1512.49,759.678 1511.5,756.5C 1511.08,753.729 1512.08,751.729 1514.5,750.5C 1516.4,751.639 1517.4,750.973 1517.5,748.5 Z"/></g>
<g><path style="opacity:1" fill="#dc4163" d="M 1796.5,760.5 C 1795.21,759.71 1794.04,758.71 1793,757.5C 1791.98,758.634 1791.32,758.301 1791,756.5C 1790.67,757.833 1790.33,759.167 1790,760.5C 1789.8,758.618 1789.3,756.952 1788.5,755.5C 1789.35,749.364 1790.51,743.364 1792,737.5C 1794.19,745.021 1795.69,752.688 1796.5,760.5 Z"/></g>
<g><path style="opacity:1" fill="#cd5071" d="M 1517.5,748.5 C 1517.4,750.973 1516.4,751.639 1514.5,750.5C 1512.08,751.729 1511.08,753.729 1511.5,756.5C 1512.49,759.678 1512.49,762.678 1511.5,765.5C 1512.38,767.773 1514.04,768.773 1516.5,768.5C 1514.78,769.807 1512.94,769.807 1511,768.5C 1510.33,762.167 1510.33,755.833 1511,749.5C 1513.04,748.577 1515.21,748.244 1517.5,748.5 Z"/></g>
<g><path style="opacity:1" fill="#fefefe" d="M 2599.5,843.5 C 2599.83,834.318 2599.49,825.318 2598.5,816.5C 2598.85,800.191 2599.35,782.857 2600,764.5C 2603.96,754.574 2611.3,750.574 2622,752.5C 2641.19,754.269 2660.36,756.269 2679.5,758.5C 2679.5,770.833 2679.5,783.167 2679.5,795.5C 2669.58,793.939 2659.91,792.605 2650.5,791.5C 2650.5,787.167 2650.5,782.833 2650.5,778.5C 2644.84,778.82 2639.34,778.153 2634,776.5C 2633.67,776.833 2633.33,777.167 2633,777.5C 2632.33,798.5 2632.33,819.5 2633,840.5C 2638.68,842.126 2644.52,843.126 2650.5,843.5C 2650.33,837.824 2650.5,832.157 2651,826.5C 2651.41,826.043 2651.91,825.709 2652.5,825.5C 2662.11,827.157 2671.78,828.491 2681.5,829.5C 2681.98,843.658 2681.48,857.658 2680,871.5C 2658.51,868.542 2637.01,865.375 2615.5,862C 2606.4,859.072 2601.07,852.905 2599.5,843.5 Z"/></g>
<g><path style="opacity:1" fill="#cb5474" d="M 1699.5,755.5 C 1699.83,770.676 1699.5,785.676 1698.5,800.5C 1698.74,799.209 1698.4,798.209 1697.5,797.5C 1698.21,791.542 1698.21,785.542 1697.5,779.5C 1697.97,772.267 1697.97,765.1 1697.5,758C 1697.64,756.699 1698.31,755.866 1699.5,755.5 Z"/></g>
<g><path style="opacity:1" fill="#ee2a56" d="M 1788.5,755.5 C 1789.3,756.952 1789.8,758.618 1790,760.5C 1790.33,759.167 1790.67,757.833 1791,756.5C 1791.32,758.301 1791.98,758.634 1793,757.5C 1794.04,758.71 1795.21,759.71 1796.5,760.5C 1797.48,764.787 1797.98,769.12 1798,773.5C 1794.19,774.126 1790.02,774.126 1785.5,773.5C 1786.5,767.5 1787.5,761.5 1788.5,755.5 Z"/></g>
<g><path style="opacity:1" fill="#cf5172" d="M 1526.5,748.5 C 1526.9,755.032 1526.9,761.366 1526.5,767.5C 1525.79,766.596 1524.79,766.263 1523.5,766.5C 1523.32,764.064 1523.98,761.897 1525.5,760C 1524.79,758.657 1525.12,757.324 1526.5,756C 1524.5,753.685 1524.5,751.185 1526.5,748.5 Z"/></g>
<g><path style="opacity:1" fill="#db3559" d="M 1407.5,820.5 C 1409,818.825 1410.34,816.992 1411.5,815C 1412.45,814.383 1413.28,814.549 1414,815.5C 1414.46,814.256 1413.96,813.423 1412.5,813C 1413.83,812 1415.17,811 1416.5,810C 1416.11,808.192 1416.11,806.525 1416.5,805C 1414.61,803.921 1414.27,802.587 1415.5,801C 1414.28,798.904 1413.45,799.071 1413,801.5C 1412.34,799.892 1412.84,798.725 1414.5,798C 1413.49,796.357 1412.49,795.19 1411.5,794.5C 1411.74,791.937 1412.24,791.937 1413,794.5C 1416.16,793.255 1415.99,792.088 1412.5,791C 1413.19,789.933 1413.69,788.766 1414,787.5C 1414.36,790.544 1415.03,790.878 1416,788.5C 1416.91,789.654 1417.75,789.487 1418.5,788C 1415.83,787.333 1415.83,786.667 1418.5,786C 1415.77,784.569 1415.11,782.569 1416.5,780C 1416.14,778.775 1415.64,777.609 1415,776.5C 1414.67,776.833 1414.33,777.167 1414,777.5C 1412.96,776.377 1412.29,775.044 1412,773.5C 1411.67,774.167 1411.33,774.833 1411,775.5C 1410.93,772.953 1410.1,770.786 1408.5,769C 1411.17,768.333 1411.17,767.667 1408.5,767C 1410.09,766.138 1411.75,765.471 1413.5,765C 1413.02,763.992 1412.85,762.825 1413,761.5C 1411.91,759.31 1410.75,757.977 1409.5,757.5C 1413.23,756.804 1417.06,756.138 1421,755.5C 1421.5,776.831 1421.67,798.164 1421.5,819.5C 1416.59,819.709 1411.92,820.043 1407.5,820.5 Z"/></g>
<g><path style="opacity:1" fill="#d64263" d="M 2252.5,768.5 C 2251.88,768.389 2251.38,768.056 2251,767.5C 2250.67,768.833 2250.33,770.167 2250,771.5C 2249.69,770.692 2249.19,770.025 2248.5,769.5C 2247.06,770.865 2245.73,772.365 2244.5,774C 2244.83,774.333 2245.17,774.667 2245.5,775C 2244.77,777.124 2244.11,779.291 2243.5,781.5C 2244.32,782.386 2245.32,782.719 2246.5,782.5C 2245.43,783.434 2244.1,783.768 2242.5,783.5C 2243.44,770.634 2245.61,757.967 2249,745.5C 2250.39,753.144 2251.55,760.81 2252.5,768.5 Z"/></g>
<g><path style="opacity:1" fill="#ec2754" d="M 2252.5,768.5 C 2253.4,773.488 2254.4,778.488 2255.5,783.5C 2252.39,783.736 2249.39,783.403 2246.5,782.5C 2245.32,782.719 2244.32,782.386 2243.5,781.5C 2244.11,779.291 2244.77,777.124 2245.5,775C 2245.17,774.667 2244.83,774.333 2244.5,774C 2245.73,772.365 2247.06,770.865 2248.5,769.5C 2249.19,770.025 2249.69,770.692 2250,771.5C 2250.33,770.167 2250.67,768.833 2251,767.5C 2251.38,768.056 2251.88,768.389 2252.5,768.5 Z"/></g>
<g><path style="opacity:1" fill="#e52652" d="M 1686.5,747.5 C 1688.01,748.728 1689.51,748.728 1691,747.5C 1691.66,750.534 1691.16,753.367 1689.5,756C 1690.17,757.333 1690.83,758.667 1691.5,760C 1691.17,761 1690.83,762 1690.5,763C 1692,764.491 1692.84,766.324 1693,768.5C 1694.16,766.203 1695.16,766.536 1696,769.5C 1695.15,770.792 1694.82,773.459 1695,777.5C 1695.33,776.833 1695.67,776.167 1696,775.5C 1696.41,776.901 1696.91,778.234 1697.5,779.5C 1698.21,785.542 1698.21,791.542 1697.5,797.5C 1696.78,797.082 1696.28,796.416 1696,795.5C 1693.77,795.374 1691.43,795.707 1689,796.5C 1688.64,794.579 1687.81,792.912 1686.5,791.5C 1688.92,790.351 1688.92,789.684 1686.5,789.5C 1685.47,774.495 1685.47,760.495 1686.5,747.5 Z"/></g>
<g><path style="opacity:1" fill="#cd5978" d="M 1174.5,778.5 C 1176.8,780.202 1179.47,780.868 1182.5,780.5C 1182.5,782.5 1182.5,784.5 1182.5,786.5C 1181.77,785.122 1181.1,783.622 1180.5,782C 1178.53,781.505 1176.53,781.338 1174.5,781.5C 1174.5,780.5 1174.5,779.5 1174.5,778.5 Z"/></g>
<g><path style="opacity:1" fill="#df2d54" d="M 1409.5,757.5 C 1410.75,757.977 1411.91,759.31 1413,761.5C 1412.85,762.825 1413.02,763.992 1413.5,765C 1411.75,765.471 1410.09,766.138 1408.5,767C 1411.17,767.667 1411.17,768.333 1408.5,769C 1410.1,770.786 1410.93,772.953 1411,775.5C 1411.33,774.833 1411.67,774.167 1412,773.5C 1412.29,775.044 1412.96,776.377 1414,777.5C 1414.33,777.167 1414.67,776.833 1415,776.5C 1415.64,777.609 1416.14,778.775 1416.5,780C 1415.11,782.569 1415.77,784.569 1418.5,786C 1415.83,786.667 1415.83,787.333 1418.5,788C 1417.75,789.487 1416.91,789.654 1416,788.5C 1415.03,790.878 1414.36,790.544 1414,787.5C 1413.69,788.766 1413.19,789.933 1412.5,791C 1415.99,792.088 1416.16,793.255 1413,794.5C 1412.24,791.937 1411.74,791.937 1411.5,794.5C 1412.49,795.19 1413.49,796.357 1414.5,798C 1412.84,798.725 1412.34,799.892 1413,801.5C 1413.45,799.071 1414.28,798.904 1415.5,801C 1414.27,802.587 1414.61,803.921 1416.5,805C 1416.11,806.525 1416.11,808.192 1416.5,810C 1415.17,811 1413.83,812 1412.5,813C 1413.96,813.423 1414.46,814.256 1414,815.5C 1413.28,814.549 1412.45,814.383 1411.5,815C 1410.34,816.992 1409,818.825 1407.5,820.5C 1405.28,820.441 1404.28,819.275 1404.5,817C 1404.74,797.283 1405.07,777.449 1405.5,757.5C 1406.83,757.5 1408.17,757.5 1409.5,757.5 Z"/></g>
<g><path style="opacity:1" fill="#cb5474" d="M 1406.5,758.5 C 1407.27,759.172 1407.93,760.005 1408.5,761C 1408.36,778.635 1407.86,797.802 1407,818.5C 1406.5,798.503 1406.33,778.503 1406.5,758.5 Z"/></g>
<g><path style="opacity:1" fill="#cb5474" d="M 2598.5,816.5 C 2599.49,825.318 2599.83,834.318 2599.5,843.5C 2598.81,838.1 2598.15,832.6 2597.5,827C 2598.22,823.419 2598.56,819.919 2598.5,816.5 Z"/></g>
<g><path style="opacity:1" fill="#cc5877" d="M 1225.5,841.5 C 1225.5,849.167 1225.5,856.833 1225.5,864.5C 1224.17,864.5 1222.83,864.5 1221.5,864.5C 1222.21,863.596 1223.21,863.263 1224.5,863.5C 1224.18,855.981 1224.51,848.648 1225.5,841.5 Z"/></g>
<g><path style="opacity:1" fill="#cd5978" d="M 1198.5,866.5 C 1198.22,867.289 1197.72,867.956 1197,868.5C 1193.47,868.577 1189.97,868.577 1186.5,868.5C 1190.29,867.383 1194.29,866.717 1198.5,866.5 Z"/></g>
<g><path style="opacity:1" fill="#d9254e" d="M 1061.5,879.5 C 1165.74,941.15 1275.57,988.817 1391,1022.5C 1499.58,1056.38 1601.75,1103.55 1697.5,1164C 1738.2,1190.88 1775.36,1220.72 1809,1253.5C 1826.71,1272.74 1842.88,1293.24 1857.5,1315C 1867.44,1332.8 1875.44,1351.46 1881.5,1371C 1881.17,1371.33 1880.83,1371.67 1880.5,1372C 1882.44,1373.82 1883.11,1375.82 1882.5,1378C 1883.5,1381 1884.5,1384 1885.5,1387C 1884.9,1388.63 1885.24,1390.29 1886.5,1392C 1887.84,1398.01 1887.84,1403.34 1886.5,1408C 1887.67,1412.39 1888.34,1416.89 1888.5,1421.5C 1887.13,1421.66 1885.79,1421.49 1884.5,1421C 1871.57,1404.74 1857.24,1389.74 1841.5,1376C 1805.17,1344.67 1766.84,1316 1726.5,1290C 1643.73,1239.29 1556.4,1196.95 1464.5,1163C 1402.34,1142.61 1341.34,1119.28 1281.5,1093C 1234.32,1071.12 1189.66,1045.12 1147.5,1015C 1124.76,997.017 1104.59,976.517 1087,953.5C 1077.14,938.782 1069.14,923.115 1063,906.5C 1062.67,902.384 1061.84,898.384 1060.5,894.5C 1060.25,889.588 1060.58,884.588 1061.5,879.5 Z"/></g>
<g><path style="opacity:1" fill="#d9254e" d="M 2785.5,879.5 C 2786.27,885.678 2786.27,891.512 2785.5,897C 2784.04,903.908 2782.21,910.741 2780,917.5C 2769.29,941.089 2755.29,961.756 2738,979.5C 2700.71,1015.9 2658.88,1046.07 2612.5,1070C 2545.59,1104.2 2476.09,1132.37 2404,1154.5C 2383.3,1162.63 2362.63,1170.96 2342,1179.5C 2244.36,1217.16 2150.53,1267.66 2060.5,1331C 2024.11,1358.56 1990.45,1389.06 1959.5,1422.5C 1958.57,1415.5 1958.24,1409.33 1958.5,1404C 1959.17,1403.33 1959.83,1402.67 1960.5,1402C 1959.88,1398.2 1959.88,1393.86 1960.5,1389C 1970.54,1341.43 1994.21,1298.26 2031.5,1259.5C 2069.5,1220.67 2111.5,1186.83 2157.5,1158C 2233.47,1111.35 2313.47,1072.69 2397.5,1042C 2437.42,1028.81 2477.42,1015.81 2517.5,1003C 2611.28,970.598 2700.61,929.432 2785.5,879.5 Z"/></g>
<g><path style="opacity:1" fill="#fefefe" d="M 1024.5,1534.5 C 1027.17,1539.17 1030.83,1542.83 1035.5,1545.5C 1059.08,1568.79 1085.08,1588.96 1113.5,1606C 1196.12,1654.43 1284.79,1685.76 1379.5,1700C 1446.52,1709.56 1513.52,1709.9 1580.5,1701C 1591.7,1698.83 1602.87,1696.66 1614,1694.5C 1614.67,1695.5 1614.67,1696.5 1614,1697.5C 1600.02,1723.95 1586.19,1750.45 1572.5,1777C 1572.83,1777.17 1573.17,1777.33 1573.5,1777.5C 1609.76,1764.87 1646.09,1752.53 1682.5,1740.5C 1684.52,1748.56 1687.52,1756.22 1691.5,1763.5C 1691.55,1766.35 1692.55,1768.68 1694.5,1770.5C 1702.36,1787.52 1710.86,1804.18 1720,1820.5C 1729.93,1836.56 1740.43,1852.06 1751.5,1867C 1752.15,1868.44 1752.48,1869.94 1752.5,1871.5C 1600.88,1860.99 1453.55,1831.16 1310.5,1782C 1230.35,1753.46 1154.68,1716.13 1083.5,1670C 1047.05,1645.56 1013.55,1617.4 983,1585.5C 961.6,1561.62 942.766,1535.95 926.5,1508.5C 924.593,1503.02 921.927,1498.02 918.5,1493.5C 906.816,1467.27 898.649,1439.94 894,1411.5C 891.178,1381.29 892.511,1351.29 898,1321.5C 906.356,1290.45 918.856,1261.12 935.5,1233.5C 944.153,1221.54 952.82,1209.54 961.5,1197.5C 963.587,1196.42 964.92,1194.75 965.5,1192.5C 991.7,1162.47 1020.7,1135.3 1052.5,1111C 1054.04,1109.81 1055.71,1109.48 1057.5,1110C 1065.81,1117.15 1074.47,1123.82 1083.5,1130C 1023.31,1208.96 1004.97,1296.8 1028.5,1393.5C 1021.72,1391.27 1015.05,1388.77 1008.5,1386C 991.836,1378.21 975.169,1370.55 958.5,1363C 956.866,1362.51 955.199,1362.34 953.5,1362.5C 951.106,1416.32 966.273,1464.32 999,1506.5C 1006.63,1516.63 1015.13,1525.96 1024.5,1534.5 Z"/></g>
<g><path style="opacity:1" fill="#fefefe" d="M 2828.5,1152.5 C 2833.83,1158.5 2839.5,1164.17 2845.5,1169.5C 2868.83,1194.92 2889.16,1222.25 2906.5,1251.5C 2952.43,1341.16 2950.26,1429.83 2900,1517.5C 2880.1,1550.58 2855.93,1580.24 2827.5,1606.5C 2787.38,1643.22 2743.71,1675.06 2696.5,1702C 2622.06,1742.94 2544.06,1775.94 2462.5,1801C 2345.12,1836.17 2225.45,1858.67 2103.5,1868.5C 2131.02,1830.35 2154.36,1789.68 2173.5,1746.5C 2174.72,1745.39 2176.06,1745.22 2177.5,1746C 2208.39,1756.63 2239.23,1767.46 2270,1778.5C 2270.67,1777.5 2270.67,1776.5 2270,1775.5C 2255.69,1749.08 2242.19,1722.42 2229.5,1695.5C 2284.27,1706.35 2339.61,1710.18 2395.5,1707C 2478.42,1701.27 2558.42,1683.27 2635.5,1653C 2689.33,1631.26 2738.99,1602.6 2784.5,1567C 2791.7,1560.63 2798.7,1554.13 2805.5,1547.5C 2809.5,1545.5 2812.5,1542.5 2814.5,1538.5C 2817.5,1537.5 2819.5,1535.5 2820.5,1532.5C 2824.23,1529.77 2827.23,1526.44 2829.5,1522.5C 2866.83,1482.98 2886.83,1435.81 2889.5,1381C 2889.21,1374.49 2888.88,1367.99 2888.5,1361.5C 2863.75,1371.97 2839.08,1382.64 2814.5,1393.5C 2837.61,1298.15 2819.94,1211.31 2761.5,1133C 2763.38,1130.06 2765.71,1127.56 2768.5,1125.5C 2773.25,1122.92 2777.58,1119.75 2781.5,1116C 2782.83,1115.33 2784.17,1115.33 2785.5,1116C 2800.29,1127.63 2814.63,1139.79 2828.5,1152.5 Z"/></g>
<g><path style="opacity:1" fill="#82aabe" d="M 3027.5,1123.5 C 3036.75,1131.24 3045.58,1139.57 3054,1148.5C 3054.46,1149.09 3054.63,1149.76 3054.5,1150.5C 3045.17,1141.83 3036.17,1132.83 3027.5,1123.5 Z"/></g>
<g><path style="opacity:1" fill="#6299b3" d="M 2828.5,1152.5 C 2835.17,1157.17 2840.83,1162.83 2845.5,1169.5C 2839.5,1164.17 2833.83,1158.5 2828.5,1152.5 Z"/></g>
<g><path style="opacity:1" fill="#80a9be" d="M 965.5,1192.5 C 964.92,1194.75 963.587,1196.42 961.5,1197.5C 962.08,1195.25 963.413,1193.58 965.5,1192.5 Z"/></g>
<g><path style="opacity:1" fill="#fdfefe" d="M 1305.5,1454.5 C 1309.83,1460.83 1315.17,1466.17 1321.5,1470.5C 1344.15,1491.01 1370.15,1506.17 1399.5,1516C 1435.22,1527.69 1471.88,1532.52 1509.5,1530.5C 1515.1,1530.84 1520.43,1530.18 1525.5,1528.5C 1571.07,1523.9 1612.4,1508.74 1649.5,1483C 1657.38,1475.15 1665.55,1467.65 1674,1460.5C 1675.44,1459.1 1676.27,1457.43 1676.5,1455.5C 1694.16,1462.83 1711.49,1471 1728.5,1480C 1733.28,1481.75 1737.94,1483.59 1742.5,1485.5C 1742.76,1486.98 1742.43,1488.31 1741.5,1489.5C 1683.18,1537.35 1616.18,1564.85 1540.5,1572C 1460.87,1580.5 1385.87,1566.5 1315.5,1530C 1270.6,1505.43 1234.43,1471.59 1207,1428.5C 1176.19,1372.76 1172.19,1315.1 1195,1255.5C 1200.14,1244.54 1205.81,1233.88 1212,1223.5C 1214.46,1220.21 1217.12,1217.21 1220,1214.5C 1249.13,1230.32 1278.3,1245.98 1307.5,1261.5C 1261.89,1313.94 1255.39,1370.94 1288,1432.5C 1292.23,1437.94 1296.23,1443.61 1300,1449.5C 1301.7,1451.37 1303.54,1453.04 1305.5,1454.5 Z"/></g>
<g><path style="opacity:1" fill="#fdfdfd" d="M 2624.5,1214.5 C 2627.28,1214.02 2629.28,1215.02 2630.5,1217.5C 2666.79,1271.16 2675.62,1329.16 2657,1391.5C 2643.16,1429.67 2621,1462.17 2590.5,1489C 2557.95,1516.44 2521.62,1537.44 2481.5,1552C 2384.15,1584.31 2287.82,1581.64 2192.5,1544C 2159.77,1529.73 2130.1,1510.89 2103.5,1487.5C 2124.08,1476.08 2145.08,1465.41 2166.5,1455.5C 2217.92,1506.22 2280.09,1531.22 2353,1530.5C 2413.46,1531.12 2467.96,1513.95 2516.5,1479C 2536.24,1463.28 2552.08,1444.45 2564,1422.5C 2585.78,1377.14 2584.45,1332.47 2560,1288.5C 2553.72,1279.38 2547.22,1270.38 2540.5,1261.5C 2540.92,1260.33 2541.59,1259.33 2542.5,1258.5C 2570.15,1244.34 2597.48,1229.68 2624.5,1214.5 Z"/></g>
<g><path style="opacity:1" fill="#fdfefe" d="M 1457.5,1340.5 C 1459.29,1340.21 1460.95,1340.55 1462.5,1341.5C 1506.22,1365.02 1550.22,1388.02 1594.5,1410.5C 1595.57,1412.19 1595.4,1413.85 1594,1415.5C 1579.06,1432.56 1560.23,1442.72 1537.5,1446C 1514.66,1448.94 1492.99,1445.44 1472.5,1435.5C 1463.9,1429.4 1456.06,1422.4 1449,1414.5C 1433.58,1390.34 1435.24,1367.67 1454,1346.5C 1455.39,1344.61 1456.56,1342.61 1457.5,1340.5 Z"/></g>
<g><path style="opacity:1" fill="#fdfdfd" d="M 2397.5,1415.5 C 2393.5,1418.83 2389.83,1422.5 2386.5,1426.5C 2358.57,1446.31 2327.9,1451.81 2294.5,1443C 2278.7,1437.84 2265.2,1429.01 2254,1416.5C 2252.92,1414.93 2252.09,1413.27 2251.5,1411.5C 2256.04,1407.39 2261.38,1404.56 2267.5,1403C 2307.18,1382.25 2346.68,1361.41 2386,1340.5C 2402.76,1352.5 2410.1,1368.83 2408,1389.5C 2406.42,1398.98 2402.92,1407.65 2397.5,1415.5 Z"/></g>
<g><path style="opacity:1" fill="#659bb5" d="M 2397.5,1415.5 C 2394.83,1420.17 2391.17,1423.83 2386.5,1426.5C 2389.83,1422.5 2393.5,1418.83 2397.5,1415.5 Z"/></g>
<g><path style="opacity:1" fill="#5a96b1" d="M 1305.5,1454.5 C 1311.17,1459.5 1316.5,1464.83 1321.5,1470.5C 1315.17,1466.17 1309.83,1460.83 1305.5,1454.5 Z"/></g>
<g><path style="opacity:1" fill="#fefefe" d="M 1951.5,1477.5 C 1953.9,1480.9 1956.9,1483.57 1960.5,1485.5C 1975.1,1500.77 1989.43,1516.44 2003.5,1532.5C 2005.46,1535.79 2007.79,1538.79 2010.5,1541.5C 2026.76,1563.91 2040.09,1587.91 2050.5,1613.5C 2050.6,1616.64 2051.6,1619.3 2053.5,1621.5C 2071.01,1676.45 2069.18,1730.78 2048,1784.5C 2033.79,1820.28 2015.45,1853.61 1993,1884.5C 1972.49,1912.18 1950.66,1938.85 1927.5,1964.5C 1926.68,1965.39 1925.68,1965.72 1924.5,1965.5C 1924.05,1962.86 1922.88,1960.53 1921,1958.5C 1875.97,1908.99 1839.81,1853.49 1812.5,1792C 1776.15,1693.42 1792.99,1605.58 1863,1528.5C 1863.5,1528.83 1864,1529.17 1864.5,1529.5C 1846.81,1561.23 1836.15,1595.23 1832.5,1631.5C 1830.57,1642.13 1830.23,1652.8 1831.5,1663.5C 1831.83,1686.97 1835.33,1709.97 1842,1732.5C 1850.81,1764.15 1862.98,1794.15 1878.5,1822.5C 1880.06,1827.29 1882.39,1831.62 1885.5,1835.5C 1896.66,1855.74 1908.5,1875.74 1921,1895.5C 1922.62,1897.76 1924.45,1899.76 1926.5,1901.5C 1926.56,1902.04 1926.89,1902.38 1927.5,1902.5C 1928.5,1891.52 1928.83,1880.52 1928.5,1869.5C 1930.68,1736.84 1932.51,1604.17 1934,1471.5C 1934.19,1469.1 1934.69,1466.77 1935.5,1464.5C 1940.83,1468.83 1946.16,1473.16 1951.5,1477.5 Z"/></g>
<g><path style="opacity:1" fill="#669cb5" d="M 1951.5,1477.5 C 1955.1,1479.43 1958.1,1482.1 1960.5,1485.5C 1956.9,1483.57 1953.9,1480.9 1951.5,1477.5 Z"/></g>
<g><path style="opacity:1" fill="#629ab4" d="M 918.5,1493.5 C 921.927,1498.02 924.593,1503.02 926.5,1508.5C 923.073,1503.98 920.407,1498.98 918.5,1493.5 Z"/></g>
<g><path style="opacity:1" fill="#5a96b1" d="M 2829.5,1522.5 C 2827.23,1526.44 2824.23,1529.77 2820.5,1532.5C 2822.77,1528.56 2825.77,1525.23 2829.5,1522.5 Z"/></g>
<g><path style="opacity:1" fill="#90b1c3" d="M 1525.5,1528.5 C 1520.43,1530.18 1515.1,1530.84 1509.5,1530.5C 1514.65,1529.45 1519.98,1528.78 1525.5,1528.5 Z"/></g>
<g><path style="opacity:1" fill="#649ab4" d="M 2003.5,1532.5 C 2006.97,1534.64 2009.31,1537.64 2010.5,1541.5C 2007.79,1538.79 2005.46,1535.79 2003.5,1532.5 Z"/></g>
<g><path style="opacity:1" fill="#5694b0" d="M 1024.5,1534.5 C 1028.5,1537.83 1032.17,1541.5 1035.5,1545.5C 1030.83,1542.83 1027.17,1539.17 1024.5,1534.5 Z"/></g>
<g><path style="opacity:1" fill="#80a9be" d="M 2820.5,1532.5 C 2819.5,1535.5 2817.5,1537.5 2814.5,1538.5C 2816.17,1536.17 2818.17,1534.17 2820.5,1532.5 Z"/></g>
<g><path style="opacity:1" fill="#80a9be" d="M 2814.5,1538.5 C 2812.5,1542.5 2809.5,1545.5 2805.5,1547.5C 2808.17,1544.17 2811.17,1541.17 2814.5,1538.5 Z"/></g>
<g><path style="opacity:1" fill="#72a1b9" d="M 760.5,1596.5 C 764.5,1599.83 768.167,1603.5 771.5,1607.5C 766.833,1604.83 763.167,1601.17 760.5,1596.5 Z"/></g>
<g><path style="opacity:1" fill="#d2d7d9" d="M 3138.5,1613.5 C 3138.83,1613.5 3139.17,1613.5 3139.5,1613.5C 3139.31,1614.17 3138.98,1614.17 3138.5,1613.5 Z"/></g>
<g><path style="opacity:1" fill="#80a8bd" d="M 2050.5,1613.5 C 2052.1,1615.85 2053.1,1618.51 2053.5,1621.5C 2051.6,1619.3 2050.6,1616.64 2050.5,1613.5 Z"/></g>
<g><path style="opacity:1" fill="#76a3ba" d="M 790.5,1626.5 C 794.167,1629.5 797.5,1632.83 800.5,1636.5C 796.167,1634.17 792.833,1630.83 790.5,1626.5 Z"/></g>
<g><path style="opacity:1" fill="#8fb1c3" d="M 1832.5,1631.5 C 1831.96,1642.16 1831.62,1652.83 1831.5,1663.5C 1830.23,1652.8 1830.57,1642.13 1832.5,1631.5 Z"/></g>
<g><path style="opacity:1" fill="#81a9be" d="M 1691.5,1763.5 C 1693.07,1765.51 1694.07,1767.84 1694.5,1770.5C 1692.55,1768.68 1691.55,1766.35 1691.5,1763.5 Z"/></g>
<g><path style="opacity:1" fill="#6b9eb6" d="M 1878.5,1822.5 C 1881.58,1826.32 1883.91,1830.65 1885.5,1835.5C 1882.39,1831.62 1880.06,1827.29 1878.5,1822.5 Z"/></g>
<g><path style="opacity:1" fill="#5292ae" d="M 1928.5,1869.5 C 1928.83,1880.52 1928.5,1891.52 1927.5,1902.5C 1926.89,1902.38 1926.56,1902.04 1926.5,1901.5C 1927.17,1890.83 1927.83,1880.17 1928.5,1869.5 Z"/></g>
</svg>
